<svg width="40" height="25" viewBox="0 0 40 25" fill="none" xmlns="http://www.w3.org/2000/svg">
<path d="M34.5944 11.0003C35.7657 10.1901 36.5414 8.84232 36.5414 7.32315C36.5414 4.83796 34.4994 2.82798 31.9747 2.82798C29.4499 2.82798 27.408 4.83796 27.408 7.32315C27.408 8.84232 28.1757 10.1901 29.355 11.0003C28.3498 11.3431 27.4317 11.8729 26.6561 12.5584C25.5877 11.6625 24.3292 10.9769 22.9521 10.5718C24.6221 9.57463 25.7459 7.75943 25.7459 5.69492C25.7459 2.54752 23.1579 0 19.9604 0C16.763 0 14.1749 2.55531 14.1749 5.69492C14.1749 7.75943 15.2909 9.57463 16.9687 10.5718C15.6074 10.9769 14.3649 11.6547 13.3043 12.5351C12.5287 11.8651 11.6264 11.3431 10.6371 11.0081C11.8085 10.1979 12.5841 8.85011 12.5841 7.33095C12.5841 4.84575 10.5421 2.83577 8.01741 2.83577C5.49268 2.83577 3.45073 4.84575 3.45073 7.33095C3.45073 8.85011 4.21844 10.1979 5.3977 11.0081C2.25564 12.0754 0 15.0125 0 18.4637V18.9779C0 18.9935 0.015829 19.009 0.0316581 19.009H9.71112C9.65572 19.4375 9.62406 19.8816 9.62406 20.3256V20.8554C9.62406 23.1458 11.5077 25 13.8346 25H26.1021C28.429 25 30.3126 23.1458 30.3126 20.8554V20.3256C30.3126 19.8816 30.281 19.4375 30.2256 19.009H39.9683C39.9842 19.009 40 18.9935 40 18.9779V18.4637C39.9842 15.0047 37.7364 12.0676 34.5944 11.0003ZM28.6743 7.31536C28.6743 5.52353 30.1543 4.06669 31.9747 4.06669C33.795 4.06669 35.275 5.52353 35.275 7.31536C35.275 9.08383 33.8267 10.5251 32.038 10.564C32.0142 10.564 31.9984 10.564 31.9747 10.564C31.9509 10.564 31.9351 10.564 31.9114 10.564C30.1148 10.5329 28.6743 9.09162 28.6743 7.31536ZM15.4254 5.69492C15.4254 3.24089 17.4515 1.24649 19.9446 1.24649C22.4377 1.24649 24.4638 3.24089 24.4638 5.69492C24.4638 8.06326 22.5722 10.0031 20.2058 10.1356C20.1187 10.1356 20.0317 10.1356 19.9446 10.1356C19.8575 10.1356 19.7705 10.1356 19.6834 10.1356C17.317 10.0031 15.4254 8.06326 15.4254 5.69492ZM4.69331 7.31536C4.69331 5.52353 6.17333 4.06669 7.99367 4.06669C9.81401 4.06669 11.294 5.52353 11.294 7.31536C11.294 9.08383 9.84567 10.5251 8.05698 10.564C8.03324 10.564 8.01741 10.564 7.99367 10.564C7.96992 10.564 7.9541 10.564 7.93035 10.564C6.14167 10.5329 4.69331 9.09162 4.69331 7.31536ZM9.93273 17.7548H1.28215C1.63831 14.436 4.48753 11.8339 7.94618 11.8105C7.96201 11.8105 7.97784 11.8105 7.99367 11.8105C8.0095 11.8105 8.02533 11.8105 8.04115 11.8105C9.68738 11.8183 11.1911 12.4182 12.3546 13.392C11.2149 14.6074 10.368 16.1031 9.93273 17.7548ZM29.0305 20.8554C29.0305 22.4525 27.7087 23.7535 26.0863 23.7535H13.8188C12.1963 23.7535 10.8746 22.4525 10.8746 20.8554V20.3256C10.8746 15.4877 14.8002 11.5301 19.6834 11.3898C19.7705 11.3976 19.8655 11.3976 19.9525 11.3976C20.0396 11.3976 20.1345 11.3976 20.2216 11.3898C25.1049 11.5301 29.0305 15.4877 29.0305 20.3256V20.8554ZM29.9723 17.7548C29.537 16.1109 28.706 14.6385 27.5742 13.4232C28.7455 12.426 30.2651 11.8261 31.9272 11.8105C31.943 11.8105 31.9588 11.8105 31.9747 11.8105C31.9905 11.8105 32.0063 11.8105 32.0222 11.8105C35.4808 11.8339 38.33 14.436 38.6862 17.7548H29.9723Z" fill="black"/>
</svg>
