<svg width="32" height="33" viewBox="0 0 32 33" fill="none" xmlns="http://www.w3.org/2000/svg">
<path d="M7.11117 16.1375C7.11117 14.1738 5.51928 12.5819 3.55558 12.5819C1.59189 12.5819 0 14.1738 0 16.1375C0 18.1012 1.59189 19.6931 3.55558 19.6931C5.51928 19.6931 7.11117 18.1012 7.11117 16.1375Z" fill="white"/>
<path d="M19.5555 16.1375C19.5555 14.1738 17.9636 12.5819 15.9999 12.5819C14.0362 12.5819 12.4443 14.1738 12.4443 16.1375C12.4443 18.1012 14.0362 19.6931 15.9999 19.6931C17.9636 19.6931 19.5555 18.1012 19.5555 16.1375Z" fill="white"/>
<path d="M31.9998 16.1375C31.9998 14.1738 30.4079 12.5819 28.4442 12.5819C26.4806 12.5819 24.8887 14.1738 24.8887 16.1375C24.8887 18.1012 26.4806 19.6931 28.4442 19.6931C30.4079 19.6931 31.9998 18.1012 31.9998 16.1375Z" fill="white"/>
</svg>
