<svg width="40" height="40" viewBox="0 0 40 40" fill="none" xmlns="http://www.w3.org/2000/svg">
<path d="M34.1406 20.9495H30.2252C29.6923 20.9495 29.1763 21.0223 28.6853 21.1562C27.7167 19.2521 25.7392 17.9438 23.4605 17.9438H16.5395C14.2608 17.9438 12.2833 19.2521 11.3147 21.1562C10.8237 21.0223 10.3077 20.9495 9.77484 20.9495H5.85938C2.62852 20.9495 0 23.578 0 26.8088V33.0681C0 35.0066 1.57711 36.5837 3.51562 36.5837H36.4844C38.4229 36.5837 40 35.0066 40 33.0681V26.8088C40 23.578 37.3715 20.9495 34.1406 20.9495ZM10.6801 23.8034V34.24H3.51562C2.86945 34.24 2.34375 33.7143 2.34375 33.0681V26.8089C2.34375 24.8704 3.92086 23.2933 5.85938 23.2933H9.77484C10.093 23.2933 10.401 23.3365 10.6943 23.4161C10.6859 23.5443 10.6801 23.6732 10.6801 23.8034ZM26.9762 34.24H13.0238V23.8033C13.0238 21.8648 14.6009 20.2877 16.5395 20.2877H23.4605C25.3991 20.2877 26.9762 21.8648 26.9762 23.8033V34.24ZM37.6562 33.0681C37.6562 33.7143 37.1305 34.24 36.4844 34.24H29.3199V23.8033C29.3199 23.6731 29.3141 23.5442 29.3057 23.416C29.599 23.3365 29.907 23.2932 30.2252 23.2932H34.1406C36.0791 23.2932 37.6562 24.8703 37.6562 26.8088V33.0681Z" fill="white"/>
<path d="M7.81707 9.88306C4.94605 9.88306 2.61035 12.2188 2.61035 15.0898C2.61027 17.9608 4.94605 20.2965 7.81707 20.2965C10.688 20.2965 13.0238 17.9608 13.0238 15.0898C13.0238 12.2188 10.6881 9.88306 7.81707 9.88306ZM7.81699 17.9527C6.23832 17.9527 4.95402 16.6684 4.95402 15.0898C4.95402 13.5111 6.23832 12.2268 7.81699 12.2268C9.39566 12.2268 10.68 13.5111 10.68 15.0898C10.68 16.6684 9.39566 17.9527 7.81699 17.9527Z" fill="white"/>
<path d="M20 3.41626C16.1644 3.41626 13.0439 6.53673 13.0439 10.3724C13.0439 14.208 16.1644 17.3284 20 17.3284C23.8357 17.3284 26.9561 14.208 26.9561 10.3724C26.9561 6.53681 23.8357 3.41626 20 3.41626ZM20 14.9847C17.4568 14.9847 15.3877 12.9156 15.3877 10.3724C15.3877 7.82915 17.4568 5.76001 20 5.76001C22.5433 5.76001 24.6124 7.82907 24.6124 10.3724C24.6124 12.9156 22.5433 14.9847 20 14.9847Z" fill="white"/>
<path d="M32.1828 9.88306C29.3119 9.88306 26.9761 12.2188 26.9761 15.0898C26.9762 17.9608 29.3119 20.2965 32.1828 20.2965C35.0538 20.2965 37.3895 17.9608 37.3895 15.0898C37.3895 12.2188 35.0538 9.88306 32.1828 9.88306ZM32.1828 17.9527C30.6042 17.9527 29.3198 16.6684 29.3198 15.0898C29.3199 13.5111 30.6042 12.2268 32.1828 12.2268C33.7615 12.2268 35.0458 13.5111 35.0458 15.0898C35.0458 16.6684 33.7615 17.9527 32.1828 17.9527Z" fill="white"/>
</svg>
