<svg width="25" height="26" viewBox="0 0 25 26" fill="none" xmlns="http://www.w3.org/2000/svg">
<path d="M15.4167 17.3H14.8333V11.45C14.8333 11.2014 14.5722 11 14.25 11H9.58333C9.26113 11 9 11.2014 9 11.45V13.25C9 13.4986 9.26113 13.7 9.58333 13.7H10.1667V17.3H9.58333C9.26113 17.3 9 17.5014 9 17.75V19.55C9 19.7986 9.26113 20 9.58333 20H15.4167C15.7389 20 16 19.7986 16 19.55V17.75C16 17.5014 15.7389 17.3 15.4167 17.3ZM14.8333 19.1H10.1667V18.2H10.75C11.0722 18.2 11.3333 17.9986 11.3333 17.75V13.25C11.3333 13.0014 11.0722 12.8 10.75 12.8H10.1667V11.9H13.6667V17.75C13.6667 17.9986 13.928 18.2 14.25 18.2H14.8333V19.1Z" fill="black"/>
<path d="M12.5 10C13.3271 10 14 9.10273 14 8C14 6.89727 13.3271 6 12.5 6C11.6729 6 11 6.89727 11 8C11 9.10273 11.6729 10 12.5 10ZM12.5 7C12.9135 7 13.25 7.44863 13.25 8C13.25 8.55137 12.9135 9 12.5 9C12.0865 9 11.75 8.55137 11.75 8C11.75 7.44863 12.0865 7 12.5 7Z" fill="black"/>
<path d="M12.5 0C5.76288 0 2.12929e-05 5.98207 2.12929e-05 13C2.12929e-05 15.3972 0.660536 17.9466 1.77424 19.8749L0.0250075 25.3317C-0.0333573 25.514 0.0122283 25.7153 0.143072 25.8512C0.274489 25.9879 0.468275 26.0345 0.642797 25.9738L5.88972 24.1548C7.74366 25.3133 10.195 26 12.5 26C19.2389 26 25 20.0171 25 13C25 5.99159 19.2474 0 12.5 0V0ZM12.5 24.9844C10.2888 24.9844 7.93859 24.3058 6.21301 23.1691C6.09075 23.0886 5.93836 23.0674 5.79721 23.1164L1.2604 24.6892L2.77273 19.9709C2.81927 19.8261 2.80058 19.6674 2.722 19.5385C1.62909 17.7441 0.976583 15.2996 0.976583 13C0.976583 6.50377 6.25364 1.01562 12.5 1.01562C18.7464 1.01562 24.0234 6.50377 24.0234 13C24.0234 19.4962 18.7464 24.9844 12.5 24.9844Z" fill="black"/>
</svg>
