<svg width="40" height="40" viewBox="0 0 40 40" fill="none" xmlns="http://www.w3.org/2000/svg">
<path d="M38.9258 17.3981C38.9246 17.3972 38.9236 17.3959 38.9227 17.395L22.6043 1.0788C21.9087 0.382996 20.9839 0 20.0002 0C19.0165 0 18.0918 0.382996 17.3959 1.0788L1.08597 17.3868C1.08047 17.3923 1.07467 17.3981 1.06948 17.4036C-0.358882 18.84 -0.35644 21.1707 1.0765 22.6035C1.73117 23.2584 2.59552 23.6374 3.51999 23.6774C3.55783 23.681 3.59568 23.6829 3.63383 23.6829H4.28392V35.6903C4.28392 38.0667 6.21771 40 8.59435 40H14.9787C15.626 40 16.1507 39.4751 16.1507 38.8281V29.4141C16.1507 28.3298 17.033 27.4478 18.1174 27.4478H21.883C22.9674 27.4478 23.8495 28.3298 23.8495 29.4141V38.8281C23.8495 39.4751 24.3741 40 25.0215 40H31.4058C33.7827 40 35.7162 38.0667 35.7162 35.6903V23.6829H36.3193C37.3027 23.6829 38.2275 23.2999 38.9236 22.6038C40.3581 21.1688 40.3587 18.8339 38.9258 17.3981ZM37.2661 20.9467C37.0131 21.1996 36.6767 21.3391 36.3193 21.3391H34.5442C33.8969 21.3391 33.3722 21.8637 33.3722 22.511V35.6903C33.3722 36.7743 32.4902 37.6562 31.4058 37.6562H26.1935V29.4141C26.1935 27.0377 24.26 25.1041 21.883 25.1041H18.1174C15.7405 25.1041 13.8067 27.0377 13.8067 29.4141V37.6562H8.59435C7.51026 37.6562 6.62791 36.7743 6.62791 35.6903V22.511C6.62791 21.8637 6.10326 21.3391 5.45591 21.3391H3.71135C3.69304 21.3379 3.67503 21.337 3.65642 21.3367C3.30726 21.3306 2.97977 21.192 2.73439 20.9464C2.21248 20.4245 2.21248 19.5752 2.73439 19.053C2.73469 19.053 2.73469 19.0527 2.735 19.0524L2.73591 19.0515L19.0538 2.7359C19.3065 2.48291 19.6425 2.34375 20.0002 2.34375C20.3576 2.34375 20.6937 2.48291 20.9467 2.7359L37.2609 19.0482C37.2633 19.0506 37.2661 19.053 37.2685 19.0555C37.7877 19.5782 37.7868 20.4257 37.2661 20.9467Z" fill="white"/>
</svg>
