<svg width="151" height="151" viewBox="0 0 151 151" fill="none" xmlns="http://www.w3.org/2000/svg">
<path d="M148.764 75.1318C148.764 34.5744 115.689 1.5 75.1318 1.5C34.5744 1.5 1.5 34.5744 1.5 75.1318C1.5 115.689 34.5744 148.764 75.1318 148.764C115.689 148.764 148.764 115.689 148.764 75.1318Z" fill="#0059AA" stroke="white" stroke-width="3"/>
<path fill-rule="evenodd" clip-rule="evenodd" d="M74.8401 19.2842C105.644 19.2842 130.768 44.7899 130.768 76.062C130.768 107.332 105.644 132.838 74.8401 132.838C44.0364 132.838 18.9141 107.332 18.9141 76.062C18.9141 44.7899 44.0364 19.2842 74.8401 19.2842Z" fill="white"/>
<path d="M74.8401 19.2842C105.644 19.2842 130.768 44.7899 130.768 76.0621C130.768 107.332 105.644 132.838 74.8401 132.838C44.0364 132.838 18.9141 107.332 18.9141 76.0621C18.9141 44.7899 44.0364 19.2842 74.8401 19.2842Z" stroke="#231F20" stroke-width="0.216" stroke-miterlimit="2.6131"/>
<path fill-rule="evenodd" clip-rule="evenodd" d="M54.1615 68.7511L68.1299 68.9973L68.8663 129.282C-0.311543 115.072 13.6809 22.9027 75.7285 22.8003C138.221 26.2467 149.322 109.236 83.3249 128.792V68.7511L97.7835 68.5071V110.166C123.923 91.6252 122.37 49.0663 89.6969 37.3831C63.4854 27.0396 32.7513 48.709 34.3133 76.1035C34.7207 89.4184 39.0515 101.753 54.6538 110.903L54.1615 68.7511Z" fill="#2E4A85"/>
<path fill-rule="evenodd" clip-rule="evenodd" d="M32.8715 116.71L25.5583 122.893L24.3057 121.422L27.5516 118.675L21.7721 118.451L20.0859 116.473L25.2729 116.808L27.2728 110.142L28.8936 112.044L27.1682 116.948L29.4077 117.107L31.6188 115.24L32.8715 116.71ZM22.2056 101.304L23.3341 103.077L21.9398 104.944L23.9898 108.171L26.2554 107.676L27.3534 109.406L17.2495 111.369L16.1538 109.646L22.2056 101.304ZM20.905 106.326L18.6046 109.336L22.308 108.53L20.905 106.326ZM22.1228 99.5526L13.1867 103.027L11.7031 99.2455C11.3306 98.2935 11.1411 97.5724 11.1324 97.0779C11.1236 96.5855 11.274 96.1281 11.5811 95.7098C11.8927 95.2915 12.3087 94.98 12.8381 94.7752C13.5091 94.5138 14.1409 94.4964 14.7312 94.7164C15.3194 94.9386 15.827 95.4201 16.2453 96.1586C16.3215 95.6793 16.4457 95.261 16.6178 94.9016C16.7921 94.5443 17.1428 94.0149 17.6678 93.3178L18.9858 91.5511L19.8267 93.7012L18.3933 95.7555C17.877 96.4875 17.5654 96.9733 17.45 97.2129C17.3367 97.4526 17.2844 97.6813 17.2909 97.8992C17.2997 98.1148 17.3824 98.4285 17.5458 98.8425L17.6874 99.2063L21.417 97.7554L22.1228 99.5526ZM16.2605 99.7596L15.7399 98.4329C15.4022 97.5702 15.1538 97.0452 14.997 96.8578C14.8401 96.6727 14.6484 96.555 14.4219 96.5028C14.1953 96.4527 13.9491 96.4744 13.6812 96.579C13.3784 96.6966 13.1692 96.8731 13.0473 97.104C12.9231 97.3349 12.8969 97.6051 12.9601 97.9188C12.9993 98.0691 13.1584 98.5113 13.4459 99.2411L13.9949 100.642L16.2605 99.7596ZM16.8879 80.4081L17.2299 82.4798L15.2148 83.6541L15.8357 87.4228L18.1144 87.8476L18.4477 89.8671L8.37658 87.7452L8.04545 85.7323L16.8879 80.4081ZM13.7204 84.5254L10.4244 86.3989L14.1452 87.0982L13.7204 84.5254ZM7.79492 78.2906L7.83631 74.7658C7.84721 73.9729 7.91474 73.3672 8.04109 72.9511C8.21319 72.3935 8.51382 71.9164 8.94298 71.5242C9.36997 71.1256 9.89062 70.8271 10.505 70.6267C11.1215 70.4263 11.8774 70.3304 12.7771 70.3413C13.5657 70.35 14.2454 70.4568 14.8162 70.6594C15.5111 70.9056 16.071 71.2519 16.4958 71.7029C16.8204 72.0405 17.0709 72.4937 17.2474 73.0666C17.3781 73.4914 17.4391 74.0622 17.4304 74.7767L17.3868 78.4039L7.79492 78.2906ZM9.44186 76.3823L15.7921 76.4563L15.8096 75.0164C15.8161 74.4804 15.7921 74.0905 15.7311 73.8487C15.6571 73.535 15.5285 73.2736 15.3434 73.0666C15.1582 72.8575 14.851 72.6854 14.4219 72.5503C13.9949 72.4152 13.4089 72.3434 12.6682 72.3325C11.9253 72.3259 11.3589 72.3847 10.9603 72.5089C10.5594 72.6353 10.2479 72.8139 10.0235 73.0448C9.79695 73.2779 9.64446 73.5742 9.56167 73.9336C9.49632 74.2038 9.46146 74.731 9.45057 75.5174L9.44186 76.3823ZM17.7833 67.1716L8.35697 65.4027L9.67278 58.4424L11.2674 58.7431L10.3111 63.8059L12.4002 64.198L13.2912 59.4859L14.8772 59.7844L13.9862 64.4964L16.5524 64.9779L17.5458 59.7343L19.1318 60.0327L17.7833 67.1716ZM20.038 56.7868L11.0627 53.4123L11.7271 51.6565L19.1078 50.2492L13.1148 47.9988L13.7487 46.3213L22.7241 49.6936L22.0379 51.5061L14.8205 52.9091L20.6741 55.1072L20.038 56.7868ZM24.5758 46.5022L16.2409 41.7727L17.1994 40.0974L25.5343 44.8269L24.5758 46.5022ZM15.8009 41.4394L14.289 40.581L15.1822 39.0191L16.694 39.8774L15.8009 41.4394ZM26.7739 42.4894L25.3905 41.4263L23.5454 33.6665L20.8136 37.1891L19.5282 36.2001L23.8199 30.6646L25.0115 31.5817L26.922 39.6617L30.2573 35.3592L31.5361 36.3439L26.7739 42.4894ZM40.7097 27.9676L36.1022 21.4931L33.7799 23.1314L32.841 21.8112L39.0605 17.4216L39.9995 18.7417L37.6837 20.3756L42.2912 26.85L40.7097 27.9676ZM46.9445 23.5496L42.8402 14.9141L49.2668 11.886L49.9617 13.3478L45.2845 15.5524L46.1951 17.4651L50.5477 15.4152L51.2383 16.8682L46.8857 18.9204L48.0032 21.2709L52.8438 18.9879L53.5366 20.4431L46.9445 23.5496ZM56.7041 19.2493L54.0071 10.0801L55.8654 9.53762L57.0635 13.6092L59.6211 8.44402L62.1198 7.71422L59.7039 12.2956L65.0041 16.8268L62.5991 17.5283L58.8042 13.9643L57.7476 15.9358L58.5623 18.7069L56.7041 19.2493ZM67.6575 16.683L66.9321 7.15653L68.8121 7.01493L73.2105 13.082L72.7269 6.72083L74.5219 6.58577L75.2452 16.1101L73.3063 16.2561L68.9799 10.3349L69.4526 16.548L67.6575 16.683ZM78.8941 16.1602L79.5085 6.62716L81.4408 6.75133L80.8265 16.2844L78.8941 16.1602ZM79.6174 6.08472L79.7285 4.35718L81.5301 4.47264L81.4168 6.20018L79.6174 6.08472ZM84.3687 16.6591L86.3097 7.30249L88.205 7.69462L87.3445 11.8468L92.037 8.48105L94.588 9.00607L90.2963 11.9231L92.8386 18.4019L90.3857 17.8965L88.7148 12.9753L86.8522 14.2214L86.264 17.049L84.3687 16.6591ZM103.291 11.642L105.023 12.5069L102.69 17.1318C102.319 17.8638 102.102 18.3518 102.034 18.5914C101.932 18.977 101.969 19.3452 102.139 19.6959C102.311 20.0466 102.64 20.3429 103.123 20.5847C103.613 20.8309 104.034 20.918 104.387 20.8418C104.735 20.7677 105.01 20.5956 105.206 20.3298C105.404 20.0641 105.672 19.5935 106.012 18.9182L108.395 14.1952L110.125 15.0601L107.864 19.5456C107.345 20.5695 106.936 21.2709 106.628 21.6478C106.321 22.0225 105.968 22.2926 105.572 22.4604C105.173 22.6238 104.718 22.6891 104.213 22.6521C103.703 22.6129 103.11 22.4234 102.431 22.0835C101.614 21.674 101.038 21.2709 100.712 20.8701C100.383 20.4693 100.174 20.0597 100.08 19.6371C99.9863 19.2123 99.9841 18.8158 100.071 18.4454C100.204 17.9008 100.513 17.1514 100.995 16.1951L103.291 11.642ZM105.012 11.8904L105.72 10.4874L107.127 11.1911L106.419 12.594L105.012 11.8904ZM107.524 13.1474L108.232 11.7444L109.648 12.4524L108.94 13.8554L107.524 13.1474ZM108.975 25.6388L114.702 17.9771L116.216 19.099L115.538 26.5494L119.364 21.4343L120.808 22.504L115.079 30.1679L113.519 29.0089L114.155 21.7132L110.419 26.7106L108.975 25.6388ZM117.623 32.6775L124.485 26.0004L125.838 27.3816L118.976 34.0565L117.623 32.6775ZM124.93 25.6715L126.176 24.4602L127.435 25.7455L126.191 26.9568L124.93 25.6715ZM122.876 38.5572L128.572 30.1461L129.818 31.8322L125.533 37.9669L132.646 35.6642L133.864 37.3133L124.1 40.2172L122.876 38.5572ZM127.474 45.2604L135.838 40.581L139.321 46.7549L137.905 47.5478L135.369 43.0536L133.515 44.0906L135.875 48.2711L134.467 49.0597L132.108 44.8792L129.832 46.1514L132.457 50.8047L131.047 51.5933L127.474 45.2604ZM131.877 54.837L141.033 51.9919L142.249 55.8696C142.556 56.8434 142.693 57.5776 142.667 58.0699C142.641 58.5623 142.46 59.0088 142.123 59.4031C141.785 59.7996 141.345 60.0807 140.805 60.2484C140.118 60.4619 139.484 60.4379 138.911 60.1743C138.341 59.9129 137.868 59.3988 137.502 58.632C137.393 59.1047 137.241 59.5143 137.042 59.8585C136.844 60.2048 136.458 60.7081 135.883 61.3681L134.446 63.0369L133.757 60.8344L135.332 58.8847C135.896 58.1897 136.243 57.7279 136.373 57.497C136.506 57.2661 136.572 57.0417 136.583 56.8238C136.589 56.6082 136.526 56.2879 136.393 55.8653L136.278 55.4928L132.454 56.68L131.877 54.837ZM137.739 55.0375L138.166 56.399C138.443 57.2835 138.652 57.8237 138.796 58.022C138.94 58.2159 139.123 58.3488 139.345 58.4163C139.567 58.4817 139.816 58.4751 140.09 58.3902C140.399 58.2943 140.622 58.1353 140.761 57.9109C140.898 57.6887 140.946 57.4207 140.903 57.1048C140.876 56.9502 140.746 56.4992 140.51 55.752L140.062 54.3186L137.739 55.0375ZM137.868 65.0127L138.227 66.8645C137.607 67.0344 137.164 67.3045 136.903 67.677C136.639 68.0474 136.535 68.5245 136.589 69.1083C136.648 69.727 136.822 70.1823 137.116 70.4699C137.408 70.7596 137.729 70.8881 138.081 70.8554C138.308 70.8358 138.493 70.7509 138.637 70.6027C138.785 70.4568 138.903 70.215 138.988 69.8751C139.046 69.642 139.136 69.117 139.26 68.2979C139.421 67.2435 139.67 66.4941 140.003 66.0454C140.473 65.4114 141.086 65.0585 141.841 64.9888C142.329 64.943 142.796 65.0389 143.247 65.2742C143.695 65.5094 144.053 65.8754 144.325 66.3721C144.593 66.8688 144.763 67.481 144.833 68.2108C144.944 69.4089 144.765 70.3304 144.297 70.9818C143.826 71.6353 143.155 72.0166 142.279 72.1277L142.016 70.215C142.499 70.0886 142.837 69.8795 143.024 69.5876C143.214 69.2978 143.284 68.8839 143.234 68.3437C143.181 67.7838 143.027 67.3568 142.765 67.0627C142.6 66.8732 142.393 66.7904 142.146 66.8122C141.918 66.834 141.735 66.9472 141.591 67.152C141.41 67.4134 141.251 68.0212 141.118 68.9776C140.983 69.9318 140.82 70.6441 140.626 71.1147C140.43 71.5831 140.14 71.9621 139.752 72.2562C139.365 72.546 138.87 72.7202 138.267 72.7747C137.72 72.827 137.193 72.7246 136.687 72.4632C136.182 72.2061 135.785 71.8118 135.502 71.2781C135.217 70.7487 135.038 70.0668 134.96 69.2412C134.846 68.0387 135.038 67.0888 135.537 66.3939C136.034 65.6968 136.811 65.235 137.868 65.0127ZM135.415 76.2472L144.987 76.8594L144.863 78.783L135.291 78.173L135.415 76.2472ZM145.53 76.9661L147.266 77.0772L147.15 78.8723L145.414 78.7612L145.53 76.9661ZM134.609 83.7804L142.465 85.1136L142.942 82.3208L144.541 82.5931L143.262 90.0762L141.661 89.8039L142.138 87.0176L134.282 85.6844L134.609 83.7804ZM132.875 91.2221L141.907 94.4397L139.515 101.108L137.986 100.563L139.726 95.7098L137.724 94.9974L136.103 99.5134L134.583 98.971L136.206 94.455L133.746 93.5814L131.942 98.605L130.42 98.0626L132.875 91.2221ZM131.962 102.106L131.191 103.827C130.583 103.611 130.067 103.581 129.635 103.738C129.208 103.89 128.847 104.221 128.555 104.731C128.246 105.271 128.128 105.744 128.202 106.147C128.276 106.55 128.463 106.84 128.771 107.014C128.969 107.127 129.169 107.162 129.374 107.125C129.579 107.09 129.814 106.957 130.078 106.729C130.261 106.572 130.638 106.19 131.21 105.594C131.949 104.822 132.585 104.347 133.117 104.171C133.866 103.921 134.572 103.984 135.232 104.356C135.657 104.598 135.984 104.942 136.217 105.393C136.448 105.842 136.533 106.347 136.469 106.907C136.402 107.469 136.188 108.066 135.825 108.704C135.228 109.748 134.55 110.401 133.79 110.669C133.03 110.933 132.261 110.863 131.478 110.456L132.363 108.737C132.831 108.909 133.23 108.931 133.55 108.8C133.875 108.67 134.169 108.371 134.439 107.898C134.718 107.41 134.838 106.973 134.794 106.583C134.766 106.332 134.644 106.147 134.43 106.025C134.232 105.912 134.014 105.899 133.781 105.986C133.48 106.095 133.001 106.504 132.343 107.21C131.681 107.916 131.136 108.406 130.707 108.678C130.276 108.951 129.821 109.097 129.335 109.116C128.849 109.134 128.344 108.992 127.819 108.694C127.341 108.421 126.969 108.036 126.703 107.537C126.437 107.034 126.342 106.485 126.416 105.888C126.488 105.289 126.734 104.629 127.145 103.91C127.747 102.857 128.448 102.191 129.259 101.903C130.067 101.618 130.969 101.685 131.962 102.106ZM123.298 109.761L130.99 115.469L129.834 117.015L122.139 111.31L123.298 109.761ZM131.387 115.854L132.781 116.889L131.705 118.329L130.311 117.294L131.387 115.854Z" fill="white"/>
<path fill-rule="evenodd" clip-rule="evenodd" d="M62.965 143.477L61.4292 143.144L63.0347 136.589L61.6122 136.28L61.8889 135.145L64.8494 135.79L62.965 143.477ZM72.0188 139.467C72.0689 139.077 71.9796 138.728 71.7487 138.421C71.5178 138.118 71.215 137.942 70.8424 137.901C70.4503 137.855 70.1083 137.944 69.8186 138.173C69.5288 138.397 69.3567 138.711 69.3044 139.107C69.2543 139.502 69.3349 139.842 69.5528 140.127C69.7728 140.41 70.0756 140.576 70.4656 140.619C70.8446 140.663 71.1866 140.574 71.4916 140.345C71.7966 140.118 71.9709 139.824 72.0188 139.467ZM69.9275 144.471L68.2304 144.275L70.4634 141.826C70.3131 141.837 70.1867 141.844 70.0887 141.846C69.995 141.848 69.9035 141.844 69.8207 141.833C69.1367 141.754 68.5942 141.43 68.1869 140.863C67.7795 140.297 67.6248 139.643 67.7207 138.903C67.7599 138.602 67.8644 138.301 68.0322 137.999C68.2021 137.698 68.4134 137.437 68.6661 137.21C69.0103 136.912 69.372 136.705 69.7532 136.589C70.1323 136.476 70.5571 136.445 71.0254 136.5C71.4263 136.546 71.7944 136.659 72.1299 136.835C72.4654 137.014 72.7552 137.247 72.9948 137.537C73.2322 137.822 73.4043 138.138 73.5111 138.48C73.6157 138.824 73.6462 139.166 73.6004 139.506C73.5503 139.894 73.4218 140.275 73.2105 140.65C72.9991 141.025 72.6201 141.508 72.0733 142.105L69.9275 144.471ZM80.1576 136.879L80.1838 138.243L77.3038 138.291L77.0707 139.65C77.2407 139.554 77.4215 139.478 77.6132 139.43C77.8027 139.38 78.0053 139.354 78.2144 139.349C78.9878 139.336 79.6501 139.598 80.2012 140.131C80.7546 140.663 81.0399 141.312 81.053 142.079C81.0595 142.425 81.0007 142.759 80.8787 143.077C80.7546 143.395 80.5737 143.689 80.3341 143.957C80.0444 144.286 79.7111 144.536 79.3385 144.708C78.9638 144.878 78.5543 144.968 78.1142 144.974C77.3191 144.987 76.6459 144.756 76.0904 144.279C75.5349 143.802 75.2147 143.175 75.1319 142.399L76.7069 142.373C76.7592 142.728 76.9139 143.011 77.1666 143.227C77.4215 143.445 77.7243 143.549 78.075 143.545C78.4606 143.538 78.7743 143.397 79.0248 143.125C79.2754 142.85 79.3974 142.508 79.3908 142.096C79.3821 141.689 79.247 141.36 78.9856 141.112C78.7242 140.865 78.3822 140.746 77.9596 140.752C77.7069 140.757 77.4912 140.809 77.3082 140.907C77.1274 141.005 76.9858 141.149 76.8768 141.34L75.4804 141.066L76.2037 136.944L80.1576 136.879ZM87.4447 136.171L87.6211 137.526L84.7651 137.857L84.6824 139.229C84.8414 139.118 85.0135 139.027 85.1987 138.957C85.3817 138.89 85.5799 138.844 85.789 138.818C86.5537 138.731 87.2421 138.924 87.8499 139.402C88.462 139.876 88.8128 140.493 88.913 141.253C88.9587 141.597 88.9369 141.935 88.852 142.264C88.7627 142.593 88.6167 142.902 88.4054 143.192C88.1549 143.547 87.8521 143.83 87.4991 144.037C87.1462 144.244 86.7497 144.371 86.3097 144.423C85.5233 144.514 84.8283 144.349 84.2205 143.931C83.6149 143.51 83.2293 142.92 83.0594 142.155L84.6257 141.974C84.715 142.323 84.9002 142.589 85.1769 142.778C85.4535 142.97 85.7651 143.044 86.1136 143.005C86.497 142.959 86.7955 142.789 87.0133 142.495C87.2312 142.197 87.314 141.844 87.2617 141.434C87.2072 141.029 87.0395 140.717 86.7519 140.497C86.4622 140.277 86.1093 140.19 85.691 140.238C85.4405 140.269 85.2292 140.34 85.0592 140.458C84.8915 140.571 84.7651 140.728 84.678 140.931L83.2576 140.794L83.5212 136.624L87.4447 136.171Z" fill="white"/>
<path fill-rule="evenodd" clip-rule="evenodd" d="M58.2789 76.1623L62.7927 76.4738L62.8188 122.309C6.42002 104.443 18.9202 31.6057 72.805 26.1878C121.799 23.5061 151.037 96.5943 86.7952 123.943L86.7081 76.3845L91.5552 76.3213L91.5531 117.985C138.807 93.0281 120.553 29.6952 73.3191 29.1288C28.5273 33.0087 7.85999 92.2025 58.5141 118.107L58.2789 76.1623Z" fill="#2E4A85"/>
<path fill-rule="evenodd" clip-rule="evenodd" d="M50.7065 134.33C51.6433 134.33 52.4079 135.095 52.4079 136.031C52.4079 136.97 51.6433 137.735 50.7065 137.735C49.7676 137.735 49.0029 136.97 49.0029 136.031C49.0029 135.095 49.7676 134.33 50.7065 134.33Z" fill="white"/>
<path fill-rule="evenodd" clip-rule="evenodd" d="M99.3415 134.33C100.28 134.33 101.045 135.095 101.045 136.031C101.045 136.97 100.28 137.735 99.3415 137.735C98.4048 137.735 97.6401 136.97 97.6401 136.031C97.6401 135.095 98.4048 134.33 99.3415 134.33Z" fill="white"/>
</svg>
