<svg width="40" height="37" viewBox="0 0 40 37" fill="none" xmlns="http://www.w3.org/2000/svg">
<path d="M8.66665 16.0276C8.29868 16.0276 8 16.3038 8 16.6442V20.3443C8 20.6847 8.29868 20.961 8.66665 20.961C9.03463 20.961 9.33331 20.6847 9.33331 20.3443V16.6442C9.33339 16.3038 9.03471 16.0276 8.66665 16.0276Z" fill="black"/>
<path d="M8.73886 0.167261L2.43536 2.50019C0.660014 3.10825 0 3.93339 0 5.54473V31.4509C0 33.0623 0.660014 33.8873 2.41872 34.4905L8.75152 36.8339C9.06488 36.9437 9.3795 36.9992 9.68755 36.9992C11.0276 36.9992 12.0003 35.9631 12.0003 34.5355V2.46138C12.0003 0.70753 10.4882 -0.441952 8.73886 0.167261ZM10.6669 34.5355C10.6669 35.2712 10.2735 35.7658 9.68755 35.7658C9.54153 35.7658 9.38419 35.7368 9.23418 35.685L2.89873 33.3398C1.64074 32.9087 1.33339 32.5375 1.33339 31.4509V5.54473C1.33339 4.45812 1.64074 4.08754 2.91475 3.6509L9.22153 1.31739C9.38419 1.26066 9.54083 1.23168 9.68685 1.23168C10.2729 1.23168 10.6669 1.72563 10.6669 2.46138V34.5355Z" fill="black"/>
<path d="M13.9167 3.69396H23.3335C24.4362 3.69396 25.3335 4.52402 25.3335 5.54399V14.7942C25.3335 15.1346 25.6315 15.4108 26.0002 15.4108C26.3689 15.4108 26.6669 15.1346 26.6669 14.7942V5.54399C26.6669 3.84384 25.1715 2.46057 23.3334 2.46057H13.9167C13.5487 2.46057 13.25 2.73685 13.25 3.07723C13.25 3.41761 13.5487 3.69396 13.9167 3.69396Z" fill="black"/>
<path d="M26.0004 21.5777C25.6317 21.5777 25.3337 21.854 25.3337 22.1943V31.4445C25.3337 32.4645 24.4364 33.2946 23.3337 33.2946H14.0001C13.6322 33.2946 13.3335 33.5708 13.3335 33.9112C13.3335 34.2516 13.6322 34.5279 14.0001 34.5279H23.3337C25.1717 34.5279 26.6671 33.1447 26.6671 31.4445V22.1943C26.6671 21.854 26.3691 21.5777 26.0004 21.5777Z" fill="black"/>
<path d="M39.9495 18.2587C39.9155 18.1828 39.8668 18.115 39.8048 18.0576L33.1386 11.8909C32.8779 11.6498 32.4566 11.6498 32.196 11.8909C31.9353 12.132 31.9353 12.5218 32.196 12.7628L37.7247 17.8776H15.3336C14.9657 17.8776 14.667 18.1538 14.667 18.4942C14.667 18.8346 14.9657 19.1109 15.3336 19.1109H37.7248L32.196 24.2251C31.9353 24.4662 31.9353 24.856 32.196 25.097C32.326 25.2173 32.4967 25.2777 32.6673 25.2777C32.838 25.2777 33.0086 25.2173 33.1386 25.097L39.8048 18.9308C39.8668 18.8735 39.9155 18.8057 39.9495 18.7298C40.0168 18.5794 40.0168 18.4092 39.9495 18.2587Z" fill="black"/>
</svg>
