<svg width="32" height="25" viewBox="0 0 32 25" fill="none" xmlns="http://www.w3.org/2000/svg">
<path d="M29.1875 0.137573H2.8125C1.26363 0.137573 0 1.39982 0 2.95007V21.7001C0 23.2451 1.258 24.5126 2.8125 24.5126H29.1875C30.7325 24.5126 32 23.2546 32 21.7001V2.95007C32 1.40507 30.742 0.137573 29.1875 0.137573ZM28.7991 2.01257L16.0596 14.7521L3.20994 2.01257H28.7991ZM1.875 21.3118V3.32939L10.9049 12.2819L1.875 21.3118ZM3.20081 22.6376L12.2364 13.6019L15.4025 16.7408C15.769 17.1042 16.3604 17.103 16.7254 16.7379L19.8125 13.6509L28.7992 22.6376H3.20081ZM30.125 21.3118L21.1383 12.3251L30.125 3.33832V21.3118Z" fill="#FBFCFF"/>
</svg>
