<svg width="24" height="24" viewBox="0 0 24 24" fill="none" xmlns="http://www.w3.org/2000/svg">
<path d="M23.9143 19.3833L21.8528 16.6428C20.9024 15.3779 20.3996 13.9302 20.3996 12.4546V10.0541C20.3996 6.35897 16.6306 3.35138 12 3.35138C7.36943 3.35138 3.60039 6.35897 3.60039 10.0541V12.4546C3.60039 13.9302 3.09759 15.3779 2.14723 16.6428L0.0857013 19.3833C-0.0258939 19.5307 -0.0283125 19.7155 0.0773205 19.8649C0.184135 20.0152 0.384489 20.1081 0.60048 20.1081H23.3995C23.6155 20.1081 23.8159 20.0153 23.9227 19.8649C24.0283 19.7155 24.0259 19.5307 23.9143 19.3833ZM1.66007 19.1506L3.17561 17.135C4.23874 15.7217 4.80032 14.1035 4.80032 12.4546V10.0541C4.80032 6.8856 8.02938 4.30889 12 4.30889C15.9706 4.30889 19.1997 6.8856 19.1997 10.0541V12.4546C19.1997 14.1035 19.7613 15.7217 20.8232 17.135L22.34 19.1506H1.66007Z" fill="black"/>
<path d="M12.0005 0C10.6769 0 9.60059 0.858902 9.60059 1.91507V3.83014C9.60059 4.09437 9.86939 4.30887 10.2006 4.30887C10.5318 4.30887 10.8006 4.09437 10.8006 3.83009V1.91507C10.8006 1.38651 11.3381 0.957557 12.0005 0.957557C12.6629 0.957557 13.2004 1.38651 13.2004 1.91507V3.83014C13.2004 4.09437 13.4693 4.30887 13.8004 4.30887C14.1316 4.30887 14.4004 4.09437 14.4004 3.83009V1.91507C14.4004 0.858902 13.3241 0 12.0005 0Z" fill="black"/>
<path d="M15.5089 20.247C15.3291 20.009 14.9402 19.931 14.6355 20.068C14.3308 20.208 14.2289 20.515 14.4073 20.753C14.573 20.974 14.6636 21.239 14.6636 21.5C14.6636 22.327 13.8056 23 12.7512 23C11.6968 23 10.8387 22.327 10.8387 21.5C10.8387 21.239 10.9293 20.974 11.095 20.753C11.2722 20.514 11.1702 20.208 10.8668 20.068C10.5595 19.931 10.1719 20.009 9.99345 20.247C9.71167 20.625 9.5625 21.058 9.5625 21.5C9.56256 22.879 10.9917 24 12.7499 24C14.5081 24 15.9372 22.879 15.9398 21.5C15.9398 21.058 15.7906 20.625 15.5089 20.247Z" fill="black"/>
</svg>
