<svg width="35" height="35" viewBox="0 0 35 35" fill="none" xmlns="http://www.w3.org/2000/svg">
<path d="M35 17.5C35 27.165 27.165 35 17.5 35C7.83502 35 0 27.165 0 17.5C0 7.83502 7.83502 0 17.5 0C27.165 0 35 7.83502 35 17.5Z" fill="#005AA9"/>
<path d="M25.0711 19.9289C23.9819 18.8398 22.6855 18.0335 21.2711 17.5454C22.786 16.502 23.7812 14.7558 23.7812 12.7812C23.7812 9.59348 21.1878 7 18 7C14.8122 7 12.2188 9.59348 12.2188 12.7812C12.2188 14.7558 13.214 16.502 14.729 17.5454C13.3145 18.0335 12.0181 18.8398 10.9289 19.9289C9.0402 21.8177 8 24.3289 8 27H9.5625C9.5625 22.3475 13.3475 18.5625 18 18.5625C22.6525 18.5625 26.4375 22.3475 26.4375 27H28C28 24.3289 26.9598 21.8177 25.0711 19.9289ZM18 17C15.6738 17 13.7812 15.1075 13.7812 12.7812C13.7812 10.455 15.6738 8.5625 18 8.5625C20.3262 8.5625 22.2188 10.455 22.2188 12.7812C22.2188 15.1075 20.3262 17 18 17Z" fill="white"/>
</svg>
