<svg width="40" height="40" viewBox="0 0 40 40" fill="none" xmlns="http://www.w3.org/2000/svg">
<path d="M11.5106 0.429256C8.46146 1.25859 6.82989 2.24843 4.28891 4.76317C-0.525563 9.55188 -1.38147 17.2299 2.20264 23.3294C3.27252 25.1754 5.94723 27.7436 7.81953 28.7335C13.062 31.489 18.9731 31.2749 23.6806 28.1181C24.6167 27.4761 25.4994 26.941 25.6063 26.941C25.7133 26.941 26.0076 27.1818 26.275 27.4761C26.6495 27.9041 26.703 28.0914 26.4623 28.3322C26.275 28.5194 26.1413 29.1347 26.1413 29.6965C26.1413 30.6864 26.3553 30.9807 30.3138 34.9668C34.7806 39.5147 35.7702 40.2371 36.9739 39.9428C37.9635 39.702 39.7021 37.9631 39.9428 36.9732C40.237 35.7694 39.5148 34.7795 34.9678 30.3119C30.9825 26.3525 30.6883 26.1385 29.6987 26.1385C29.137 26.1385 28.5218 26.2722 28.3346 26.4595C28.0938 26.7003 27.9066 26.6468 27.4786 26.2722C27.1844 26.0047 26.9437 25.7104 26.9437 25.6034C26.9437 25.4964 27.4786 24.5868 28.1473 23.5702C29.9126 20.9217 30.5546 18.6477 30.5546 15.1699C30.5546 12.0399 30.1534 10.515 28.6823 7.81296C27.3984 5.51224 26.0343 4.0141 23.8143 2.56946C21.1663 0.857296 19.1068 0.188484 15.9774 0.0279694C13.9981 -0.0522881 13.0085 0.0279694 11.5106 0.429256ZM18.3311 1.9274C25.7133 3.66632 30.3941 11.05 28.6823 18.3267C27.4786 23.4632 23.4666 27.4493 18.3579 28.68C10.6815 30.4724 3.00505 25.2289 1.77469 17.3101C0.330344 7.91997 9.10339 -0.239559 18.3311 1.9274ZM34.2189 31.9438C36.5459 34.2712 38.445 36.2777 38.445 36.4114C38.445 36.786 36.8134 38.4446 36.4657 38.4446C36.011 38.4446 27.7461 30.0711 27.7461 29.643C27.7461 29.108 29.0835 27.7436 29.5917 27.7436C29.8324 27.7436 31.9187 29.643 34.2189 31.9438Z" fill="white"/>
<path d="M5.89358 7.7327C2.38972 12.0399 2.33622 18.1929 5.81334 22.9014L6.66925 24.0518L7.28443 23.4632L7.92636 22.8479L7.12395 21.8313C4.12828 18.0592 4.18177 12.3341 7.28443 8.58878L7.95311 7.75945L7.33793 7.2244L6.74949 6.6626L5.89358 7.7327Z" fill="white"/>
</svg>
