<svg width="25" height="25" viewBox="0 0 25 25" fill="none" xmlns="http://www.w3.org/2000/svg">
<path d="M23.3696 9.78261H21.3348C21.1641 9.22554 20.9408 8.6875 20.6696 8.175L22.1071 6.7375C22.4147 6.42989 22.5842 6.02011 22.5842 5.5837C22.5842 5.14783 22.4147 4.73804 22.1071 4.43043L20.569 2.89239C19.9543 2.27772 18.8783 2.27609 18.2625 2.89239L16.825 4.32989C16.313 4.0587 15.7745 3.83587 15.2174 3.66467V1.63043C15.2174 0.731522 14.4859 0 13.587 0H11.413C10.5141 0 9.78261 0.731522 9.78261 1.63043V3.66522C9.22554 3.83641 8.6875 4.05924 8.175 4.33043L6.73696 2.89293C6.10109 2.25707 5.0663 2.25707 4.43043 2.89293L2.89185 4.43098C2.25652 5.06685 2.25652 6.10163 2.89185 6.7375L4.32935 8.17554C4.05815 8.6875 3.83533 9.22609 3.66413 9.78315H1.63043C0.731522 9.78315 0 10.5147 0 11.4136V13.5875C0 14.4859 0.731522 15.2174 1.63043 15.2174H3.66522C3.83641 15.7745 4.05924 16.3125 4.33043 16.825L2.89293 18.263C2.25707 18.8989 2.25707 19.9337 2.89293 20.5696L4.43098 22.1082C5.06685 22.7435 6.10163 22.7435 6.7375 22.1082L8.17554 20.6707C8.6875 20.9418 9.22609 21.1647 9.78315 21.3359V23.3696C9.78315 24.2685 10.5147 25 11.4136 25H13.5875C14.4864 25 15.2179 24.2685 15.2179 23.3696V21.3348C15.775 21.1636 16.3136 20.9408 16.8255 20.6696L18.263 22.1076C18.8793 22.7234 19.9554 22.7223 20.5696 22.1076L22.1076 20.5696C22.4152 20.262 22.5848 19.8522 22.5848 19.4163C22.5848 18.9799 22.4152 18.5707 22.1076 18.263L20.6701 16.825C20.9413 16.313 21.1641 15.7745 21.3353 15.2174H23.3696C24.2685 15.2174 25 14.4859 25 13.587V11.413C25 10.5141 24.2685 9.78261 23.3696 9.78261ZM23.913 13.587C23.913 13.8864 23.6696 14.1304 23.3696 14.1304H20.9239C20.6761 14.1304 20.4598 14.2984 20.3978 14.538C20.2054 15.2799 19.9125 15.988 19.5261 16.6424C19.4005 16.856 19.4348 17.1277 19.6098 17.3027L21.338 19.0315C21.4402 19.1337 21.4967 19.2701 21.4967 19.4163C21.4967 19.5625 21.4402 19.6989 21.338 19.8011L19.8 21.3391C19.5957 21.5435 19.2353 21.5435 19.0304 21.3391L17.3022 19.6109C17.1272 19.4353 16.8554 19.4016 16.6413 19.5272C15.988 19.913 15.2799 20.2065 14.5375 20.3984C14.2984 20.4598 14.1304 20.6761 14.1304 20.9239V23.3696C14.1304 23.669 13.887 23.913 13.587 23.913H11.413C11.1136 23.913 10.8696 23.669 10.8696 23.3696V20.9239C10.8696 20.6761 10.7016 20.4598 10.462 20.3978C9.72011 20.206 9.01196 19.913 8.35761 19.5266C8.27174 19.4755 8.17663 19.4511 8.08152 19.4511C7.94076 19.4511 7.80163 19.5054 7.69674 19.6103L5.96848 21.3386C5.75598 21.5505 5.41141 21.5505 5.19891 21.3386L3.66087 19.8005C3.44837 19.588 3.44837 19.2429 3.66087 19.031L5.38913 17.3027C5.56467 17.1272 5.59891 16.8554 5.47283 16.6424C5.08696 15.988 4.79348 15.2804 4.60163 14.538C4.54022 14.2984 4.32391 14.1304 4.07609 14.1304H1.63043C1.33098 14.1304 1.08696 13.8864 1.08696 13.587V11.413C1.08696 11.1136 1.33098 10.8696 1.63043 10.8696H4.07609C4.32391 10.8696 4.54022 10.7016 4.60217 10.462C4.79402 9.72011 5.08696 9.01196 5.47337 8.35761C5.59946 8.14402 5.56522 7.87228 5.38967 7.69728L3.66141 5.96902C3.44946 5.75706 3.44946 5.41196 3.66141 5.19946L5.19946 3.66141C5.41196 3.44891 5.75652 3.44946 5.96902 3.66141L7.69728 5.38967C7.87283 5.56522 8.14402 5.6 8.35761 5.47337C9.01196 5.0875 9.71957 4.79402 10.462 4.60217C10.7016 4.54022 10.8696 4.32391 10.8696 4.07609V1.63043C10.8696 1.33098 11.1136 1.08696 11.413 1.08696H13.587C13.887 1.08696 14.1304 1.33098 14.1304 1.63043V4.07609C14.1304 4.32391 14.2984 4.54022 14.538 4.60217C15.2804 4.79402 15.9886 5.0875 16.6418 5.47337C16.856 5.59946 17.1277 5.56576 17.3027 5.38967L19.031 3.66141C19.2359 3.45598 19.5962 3.45652 19.8005 3.66141L21.3386 5.19946C21.4408 5.30163 21.4973 5.43859 21.4973 5.58424C21.4973 5.72989 21.4408 5.86685 21.3386 5.96902L19.6103 7.69728C19.4353 7.87283 19.4005 8.14457 19.5266 8.35761C19.913 9.01196 20.206 9.71957 20.3984 10.462C20.4598 10.7016 20.6761 10.8696 20.9239 10.8696H23.3696C23.6696 10.8696 23.913 11.1136 23.913 11.413V13.587Z" fill="black"/>
<path d="M12.4997 7.6087C9.80296 7.6087 7.6084 9.80327 7.6084 12.5C7.6084 15.1967 9.80296 17.3913 12.4997 17.3913C15.197 17.3913 17.391 15.1967 17.391 12.5C17.391 9.80327 15.197 7.6087 12.4997 7.6087ZM12.4997 16.3044C10.4019 16.3044 8.69535 14.5978 8.69535 12.5C8.69535 10.4022 10.4019 8.69566 12.4997 8.69566C14.597 8.69566 16.304 10.4022 16.304 12.5C16.304 14.5978 14.597 16.3044 12.4997 16.3044Z" fill="black"/>
</svg>
